<?xml version="1.0" standalone="no"?>
<!DOCTYPE svg PUBLIC "-//W3C//DTD SVG 20010904//EN"
 "http://www.w3.org/TR/2001/REC-SVG-20010904/DTD/svg10.dtd">
<svg version="1.0" xmlns="http://www.w3.org/2000/svg"
 width="300.000000pt" height="300.000000pt" viewBox="0 0 300.000000 300.000000"
 preserveAspectRatio="xMidYMid meet">
<metadata>
Created by potrace 1.10, written by Peter Selinger 2001-2011
</metadata>
<g transform="translate(0.000000,300.000000) scale(0.100000,-0.100000)"
fill="#000000" stroke="none">
<path d="M2580 2956 c-86 -23 -149 -79 -179 -159 -18 -47 -13 -147 10 -197 44
-97 117 -144 224 -144 82 0 134 22 185 80 46 53 63 99 63 174 1 164 -150 287
-303 246z m151 -47 c46 -27 72 -54 95 -104 46 -96 24 -199 -55 -267 -92 -79
-216 -68 -296 25 -44 51 -58 96 -53 163 10 120 114 211 229 201 31 -3 67 -11
80 -18z"/>
<path d="M706 2423 c-3 -16 -71 -440 -151 -943 -81 -503 -149 -918 -151 -922
-3 -4 58 -8 135 -8 l140 0 6 32 c10 60 45 297 45 305 0 4 83 8 185 8 102 0
185 -4 185 -8 0 -8 35 -245 45 -305 l6 -32 151 0 150 0 -6 33 c-13 69 -296
1845 -296 1856 0 8 -61 11 -219 11 l-219 0 -6 -27z m404 -35 c14 -33 292
-1777 285 -1788 -7 -12 -184 -13 -201 -2 -7 4 -21 69 -33 145 -12 76 -27 146
-33 157 -20 32 -63 40 -213 40 -151 0 -193 -8 -213 -40 -7 -12 -22 -80 -33
-152 -11 -73 -25 -138 -31 -145 -7 -9 -38 -13 -94 -13 -81 0 -84 1 -84 23 0
19 108 699 255 1617 15 91 32 168 39 172 6 4 86 8 179 8 164 0 168 0 177 -22z"/>
<path d="M893 2106 c-24 -29 -32 -71 -72 -341 -17 -110 -41 -276 -55 -370 -14
-93 -28 -185 -31 -203 -5 -25 -1 -37 19 -57 24 -24 30 -25 159 -25 127 0 135
1 155 23 24 26 27 56 12 138 -5 30 -33 209 -61 399 -57 387 -64 422 -89 445
-16 15 -19 14 -37 -9z m97 -501 c34 -225 64 -420 67 -432 l5 -23 -146 0 c-80
0 -146 2 -146 4 0 3 22 152 49 333 27 180 57 380 65 443 9 63 19 131 23 150
l6 35 8 -50 c5 -27 36 -234 69 -460z"/>
<path d="M1590 1500 l0 -950 150 0 150 0 0 388 0 387 87 -3 c109 -4 149 -22
183 -83 25 -43 25 -48 31 -339 4 -162 10 -307 14 -322 l7 -28 154 0 c85 0 154
3 154 6 0 3 -6 15 -12 27 -9 15 -15 115 -19 327 -7 333 -13 371 -70 461 -27
43 -83 91 -119 101 -11 3 -6 10 15 21 69 36 130 124 154 221 15 63 21 266 10
381 -15 158 -82 263 -202 314 -79 34 -153 41 -424 41 l-263 0 0 -950z m640
882 c86 -28 132 -68 172 -150 l33 -67 0 -225 c0 -223 0 -225 -27 -282 -16 -36
-48 -77 -82 -109 -31 -29 -56 -60 -56 -70 0 -10 22 -37 50 -60 112 -95 128
-162 131 -556 l1 -268 -98 0 c-95 0 -99 1 -111 25 -9 18 -13 93 -13 272 0 273
-7 327 -51 388 -43 59 -94 80 -200 80 -137 0 -128 28 -131 -406 l-3 -359 -94
-3 c-60 -2 -98 1 -107 9 -20 16 -21 1778 -1 1798 9 10 69 12 267 8 227 -3 262
-6 320 -25z"/>
<path d="M1875 2195 l-25 -24 0 -284 c0 -271 1 -284 20 -305 28 -29 59 -36
142 -29 85 7 134 31 170 83 35 50 48 118 48 260 0 252 -54 324 -243 324 -80 0
-90 -2 -112 -25z m235 -33 c64 -32 75 -71 75 -272 0 -157 -2 -179 -21 -214
-29 -57 -75 -77 -185 -84 l-89 -5 0 297 0 296 93 0 c68 0 101 -5 127 -18z"/>
</g>
</svg>
